<svg fill="none" height="1102" viewBox="0 0 1104 1102" width="1104" xmlns="http://www.w3.org/2000/svg" xmlns:xlink="http://www.w3.org/1999/xlink"><clipPath id="a"><path d="m0 0h1104v1102h-1104z"/></clipPath><g clip-path="url(#a)"><g fill="#9d01de"><path d="m869.939 958.551c-15.08-16.381-14.04-41.893 2.341-56.976 16.377-15.09 41.885-14.035 56.965 2.346 15.083 16.382 14.034 41.891-2.343 56.974-16.378 15.094-41.885 14.039-56.963-2.344z"/><path d="m736.282 1034.45c-9.574-20.11-1.052-44.175 19.051-53.748 20.1-9.583 44.159-1.042 53.732 19.062 9.577 20.106 1.045 44.166-19.052 53.746-20.103 9.58-44.16 1.04-53.731-19.06z"/><path d="m586.182 1067.49c-3.212-22.03 12.031-42.51 34.066-45.72 22.031-3.22 42.497 12.04 45.712 34.08 3.219 22.03-12.035 42.5-34.064 45.72-22.035 3.22-42.5-12.04-45.714-34.08z"/><path d="m879.103 855.857c-15.132-12.135-17.574-34.247-5.436-49.384 12.129-15.145 34.24-17.57 49.375-5.434 15.131 12.134 17.565 34.246 5.431 49.38-12.133 15.145-34.239 17.577-49.37 5.438z"/><path d="m773.906 938.723c-10.876-16.06-6.685-37.905 9.377-48.786 16.06-10.887 37.902-6.676 48.78 9.388 10.879 16.063 6.68 37.904-9.38 48.785-16.061 10.886-37.902 6.68-48.777-9.387z"/><path d="m648.94 986.838c-5.647-18.559 4.802-38.195 23.359-43.844 18.558-5.662 38.184 4.81 43.834 23.369 5.657 18.562-4.805 38.187-23.36 43.847-18.557 5.65-38.184-4.81-43.833-23.372z"/><path d="m879.217 779.515c-14.879-8.657-19.929-27.741-11.268-42.624 8.651-14.886 27.736-19.927 42.612-11.271 14.878 8.66 19.926 27.741 11.268 42.621-8.656 14.887-27.735 19.928-42.612 11.274z"/><path d="m797.803 866.089c-11.656-12.668-10.855-32.391 1.811-44.051 12.662-11.665 32.382-10.854 44.041 1.814 11.658 12.665 10.85 32.385-1.811 44.049-12.663 11.668-32.381 10.85-44.041-1.812z"/><path d="m722.606 942.533c17.212 0 31.165-13.957 31.165-31.174s-13.953-31.174-31.165-31.174-31.165 13.957-31.165 31.174 13.953 31.174 31.165 31.174z"/><path d="m873.662 703.364c14.997 0 27.155-12.161 27.155-27.162 0-15.002-12.158-27.163-27.155-27.163s-27.154 12.161-27.154 27.163c0 15.001 12.157 27.162 27.154 27.162z"/><path d="m804.892 786.691c-11.7-9.381-13.59-26.478-4.204-38.179 9.379-11.71 26.473-13.584 38.175-4.201 11.698 9.381 13.58 26.478 4.199 38.178-9.382 11.707-26.474 13.585-38.17 4.202z"/><path d="m723.561 850.757c-8.411-12.415-5.168-29.305 7.249-37.716 12.417-8.418 29.303-5.16 37.714 7.258 8.41 12.418 5.163 29.304-7.252 37.716-12.418 8.415-29.304 5.163-37.711-7.258z"/><path d="m843.516 644.541c-12.884-2.978-20.919-15.84-17.936-28.729 2.977-12.887 15.838-20.918 28.722-17.938 12.884 2.978 20.916 15.84 17.936 28.726-2.978 12.89-15.841 20.92-28.722 17.941z"/><path d="m803.386 726.555c-11.429-6.65-15.309-21.312-8.658-32.745 6.649-11.436 21.31-15.307 32.739-8.66 11.429 6.654 15.306 21.316 8.654 32.745-6.648 11.439-21.306 15.31-32.735 8.66z"/><path d="m740.842 793.069c-8.958-9.731-8.34-24.885 1.388-33.843 9.728-8.964 24.878-8.336 33.837 1.395 8.957 9.728 8.333 24.881-1.392 33.838-9.728 8.965-24.876 8.338-33.833-1.39z"/><path d="m816.886 590.758c11.521 0 20.861-9.342 20.861-20.867 0-11.524-9.34-20.867-20.861-20.867s-20.861 9.343-20.861 20.867c0 11.525 9.34 20.867 20.861 20.867z"/><path d="m799.121 668.055c11.522 0 20.862-9.344 20.862-20.869s-9.34-20.869-20.862-20.869-20.863 9.344-20.863 20.869 9.341 20.869 20.863 20.869z"/><path d="m746.286 732.068c-8.989-7.205-10.438-20.338-3.229-29.33 7.203-8.997 20.336-10.437 29.325-3.229 8.99 7.208 10.435 20.341 3.229 29.33-7.21 8.994-20.341 10.441-29.325 3.229z"/><path d="m786.967 553.623c10.223 0 18.51-8.29 18.51-18.516 0-10.225-8.287-18.515-18.51-18.515-10.222 0-18.51 8.29-18.51 18.515 0 10.226 8.288 18.516 18.51 18.516z"/><path d="m781.546 623.796c10.225 0 18.513-8.291 18.513-18.518 0-10.228-8.288-18.519-18.513-18.519-10.224 0-18.513 8.291-18.513 18.519 0 10.227 8.289 18.518 18.513 18.518z"/><path d="m755.661 689.238c10.223 0 18.511-8.291 18.511-18.517 0-10.227-8.288-18.517-18.511-18.517-10.224 0-18.512 8.29-18.512 18.517 0 10.226 8.288 18.517 18.512 18.517z"/><path d="m752.278 520.588c8.907 0 16.128-7.223 16.128-16.133s-7.221-16.133-16.128-16.133c-8.908 0-16.129 7.223-16.129 16.133s7.221 16.133 16.129 16.133z"/><path d="m756.789 581.738c8.908 0 16.129-7.223 16.129-16.133s-7.221-16.133-16.129-16.133c-8.907 0-16.128 7.223-16.128 16.133s7.221 16.133 16.128 16.133z"/><path d="m743.054 641.497c8.908 0 16.128-7.223 16.128-16.133s-7.22-16.133-16.128-16.133c-8.907 0-16.128 7.223-16.128 16.133s7.221 16.133 16.128 16.133z"/><path d="m718.572 500.885c7.76 0 14.051-6.293 14.051-14.055 0-7.763-6.291-14.056-14.051-14.056-7.761 0-14.052 6.293-14.052 14.056 0 7.762 6.291 14.055 14.052 14.055z"/><path d="m730.36 552.99c7.761 0 14.052-6.292 14.052-14.055s-6.291-14.055-14.052-14.055c-7.76 0-14.051 6.292-14.051 14.055s6.291 14.055 14.051 14.055z"/><path d="m723.08 605.896c-7.559-1.749-12.274-9.297-10.525-16.857 1.748-7.567 9.296-12.277 16.856-10.528 7.561 1.748 12.274 9.297 10.525 16.857-1.747 7.566-9.295 12.279-16.856 10.528z"/><path d="m687.055 484.575c6.761 0 12.242-5.483 12.242-12.246s-5.481-12.245-12.242-12.245-12.242 5.482-12.242 12.245 5.481 12.246 12.242 12.246z"/><path d="m704.027 527.914c6.761 0 12.242-5.483 12.242-12.246s-5.481-12.246-12.242-12.246-12.242 5.483-12.242 12.246 5.481 12.246 12.242 12.246z"/><path d="m707.452 574.332c6.761 0 12.242-5.483 12.242-12.246s-5.481-12.246-12.242-12.246-12.242 5.483-12.242 12.246 5.481 12.246 12.242 12.246z"/><path d="m660.183 476.455c5.999 0 10.863-4.865 10.863-10.866 0-6.002-4.864-10.867-10.863-10.867-6 0-10.864 4.865-10.864 10.867 0 6.001 4.864 10.866 10.864 10.866z"/><path d="m680.779 512.257c6.001 0 10.865-4.866 10.865-10.869 0-6.002-4.864-10.868-10.865-10.868-6 0-10.865 4.866-10.865 10.868 0 6.003 4.865 10.869 10.865 10.869z"/><path d="m689.893 552.537c5.999 0 10.862-4.864 10.862-10.865 0-6-4.863-10.865-10.862-10.865s-10.862 4.865-10.862 10.865c0 6.001 4.863 10.865 10.862 10.865z"/><path d="m633.991 471.505c5.228 0 9.465-4.239 9.465-9.468s-4.237-9.468-9.465-9.468-9.465 4.239-9.465 9.468 4.237 9.468 9.465 9.468z"/><path d="m656.414 499.645c5.228 0 9.466-4.239 9.466-9.468s-4.238-9.468-9.466-9.468c-5.227 0-9.465 4.239-9.465 9.468s4.238 9.468 9.465 9.468z"/><path d="m669.535 533.153c5.228 0 9.466-4.239 9.466-9.469 0-5.229-4.238-9.468-9.466-9.468-5.227 0-9.465 4.239-9.465 9.468 0 5.23 4.238 9.469 9.465 9.469z"/><path d="m611.877 472.128c4.61 0 8.346-3.738 8.346-8.349s-3.736-8.349-8.346-8.349c-4.609 0-8.346 3.738-8.346 8.349s3.737 8.349 8.346 8.349z"/><path d="m635.112 493.73c4.608 0 8.344-3.737 8.344-8.347s-3.736-8.347-8.344-8.347c-4.609 0-8.345 3.737-8.345 8.347s3.736 8.347 8.345 8.347z"/><path d="m650.935 521.234c4.61 0 8.346-3.738 8.346-8.348 0-4.611-3.736-8.349-8.346-8.349-4.609 0-8.346 3.738-8.346 8.349 0 4.61 3.737 8.348 8.346 8.348z"/><path d="m592.15 474.362c4.015 0 7.27-3.257 7.27-7.273 0-4.017-3.255-7.273-7.27-7.273-4.016 0-7.271 3.256-7.271 7.273 0 4.016 3.255 7.273 7.271 7.273z"/><path d="m614.989 489.928c4.017 0 7.273-3.257 7.273-7.274 0-4.018-3.256-7.275-7.273-7.275-4.016 0-7.272 3.257-7.272 7.275 0 4.017 3.256 7.274 7.272 7.274z"/><path d="m632.217 511.549c4.017 0 7.273-3.257 7.273-7.275s-3.256-7.274-7.273-7.274c-4.016 0-7.272 3.256-7.272 7.274s3.256 7.275 7.272 7.275z"/><path d="m576.2 479.368c3.564 0 6.454-2.89 6.454-6.455s-2.89-6.455-6.454-6.455-6.453 2.89-6.453 6.455 2.889 6.455 6.453 6.455z"/><path d="m598.293 490.023c3.564 0 6.454-2.89 6.454-6.455s-2.89-6.455-6.454-6.455-6.453 2.89-6.453 6.455 2.889 6.455 6.453 6.455z"/><path d="m616.257 506.723c3.563 0 6.451-2.89 6.451-6.454s-2.888-6.453-6.451-6.453c-3.564 0-6.452 2.889-6.452 6.453s2.888 6.454 6.452 6.454z"/><path d="m562.618 485.464c3.105 0 5.622-2.518 5.622-5.623 0-3.106-2.517-5.623-5.622-5.623-3.104 0-5.621 2.517-5.621 5.623 0 3.105 2.517 5.623 5.621 5.623z"/><path d="m583.042 491.749c3.105 0 5.622-2.517 5.622-5.622 0-3.106-2.517-5.623-5.622-5.623-3.104 0-5.621 2.517-5.621 5.623 0 3.105 2.517 5.622 5.621 5.622z"/><path d="m600.699 503.785c3.105 0 5.621-2.517 5.621-5.622 0-3.106-2.516-5.623-5.621-5.623-3.104 0-5.621 2.517-5.621 5.623 0 3.105 2.517 5.622 5.621 5.622z"/></g><g fill="#f509aa"><path d="m433.02 1054.74c3.434-22 24.042-37.06 46.042-33.62 22.002 3.42 37.053 24.05 33.62 46.05-3.428 22.01-24.045 37.07-46.041 33.63-22.005-3.43-37.054-24.05-33.621-46.06z"/><path d="m290.447 997.332c9.775-20.008 33.91-28.316 53.914-18.53 20.008 9.769 28.303 33.918 18.53 53.928-9.771 20.01-33.913 28.31-53.915 18.54-20.011-9.78-28.304-33.93-18.529-53.938z"/><path d="m171.17 900.381c15.243-16.228 40.753-17.036 56.98-1.782 16.233 15.241 17.029 40.767 1.788 56.995-15.24 16.237-40.756 17.037-56.981 1.792-16.235-15.247-17.03-40.772-1.787-57.005z"/><path d="m515.345 995.906c.079-19.4 15.86-35.076 35.259-34.99 19.398.072 35.059 15.868 34.981 35.27-.074 19.404-15.862 35.074-35.257 34.994-19.4-.08-35.061-15.87-34.983-35.274z"/><path d="m385.029 965.117c5.801-18.512 25.504-28.825 44.013-23.017 18.515 5.797 28.817 25.511 23.017 44.026-5.8 18.514-25.505 28.824-44.017 23.024-18.511-5.8-28.817-25.516-23.013-44.033z"/><path d="m269.606 897.221c11.005-15.968 32.877-20.01 48.846-8.994 15.978 11.004 19.999 32.887 8.994 48.862-11.004 15.978-32.876 20.007-48.843 9.003-15.983-11.01-20.004-32.89-8.997-48.871z"/><path d="m578.424 950.31c-2.482-17.034 9.304-32.867 26.339-35.349 17.031-2.489 32.854 9.308 35.339 26.346 2.492 17.039-9.304 32.867-26.335 35.353-17.035 2.489-32.858-9.31-35.343-26.35z"/><path d="m460.013 940.454c2.654-17.009 18.587-28.656 35.595-25.993 17.01 2.646 28.647 18.592 25.991 35.604-2.649 17.012-18.59 28.656-35.594 26-17.013-2.654-28.648-18.598-25.992-35.611z"/><path d="m349.786 896.071c7.556-15.468 26.216-21.891 41.683-14.328 15.467 7.552 21.878 26.227 14.324 41.695-7.553 15.472-26.22 21.885-41.68 14.332-15.474-7.559-21.882-26.23-14.327-41.699z"/><path d="m626.946 887.96c-4.365-14.349 3.712-29.532 18.06-33.899 14.346-4.379 29.52 3.718 33.888 18.067 4.373 14.349-3.715 29.522-18.06 33.898-14.346 4.373-29.52-3.721-33.888-18.066z"/><path d="m523.66 894.965c.061-14.999 12.262-27.117 27.261-27.051 14.998.056 27.103 12.266 27.044 27.268-.057 14.999-12.264 27.116-27.258 27.055-15-.058-27.106-12.27-27.047-27.272z"/><path d="m422.909 871.162c4.486-14.312 19.721-22.285 34.029-17.792 14.316 4.482 22.278 19.725 17.797 34.036-4.484 14.319-19.719 22.285-34.03 17.803-14.313-4.488-22.282-19.728-17.796-34.047z"/><path d="m661.455 838.143c-5.684-11.939-.624-26.233 11.317-31.919 11.939-5.692 26.229-.621 31.916 11.323 5.687 11.939.621 26.233-11.317 31.919-11.94 5.692-26.229.62-31.916-11.323z"/><path d="m572.305 857.77c-1.91-13.086 7.146-25.246 20.232-27.156 13.085-1.913 25.242 7.152 27.151 20.241 1.912 13.089-7.15 25.249-20.232 27.159-13.09 1.911-25.244-7.152-27.151-20.244z"/><path d="m481.332 850.2c2.038-13.068 14.279-22.014 27.347-19.973 13.067 2.035 22.007 14.286 19.967 27.354-2.035 13.072-14.282 22.014-27.346 19.977-13.07-2.039-22.008-14.291-19.968-27.358z"/><path d="m683.804 781.289c-6.463-9.539-3.971-22.515 5.568-28.977 9.54-6.468 22.512-3.966 28.975 5.577 6.46 9.539 3.965 22.512-5.574 28.977-9.536 6.464-22.512 3.966-28.969-5.577z"/><path d="m609.579 809.866c-3.354-11.023 2.854-22.684 13.874-26.041 11.023-3.361 22.682 2.857 26.036 13.88 3.36 11.026-2.854 22.681-13.876 26.041-11.021 3.361-22.68-2.853-26.034-13.88z"/><path d="m530.23 815.254c.046-11.525 9.42-20.833 20.943-20.783 11.521.04 20.824 9.423 20.777 20.946-.044 11.526-9.42 20.829-20.94 20.786-11.525-.049-20.826-9.426-20.78-20.949z"/><path d="m711.614 744.12c10.222 0 18.509-8.289 18.509-18.515s-8.287-18.515-18.509-18.515c-10.223 0-18.51 8.289-18.51 18.515s8.287 18.515 18.51 18.515z"/><path d="m653.333 783.551c10.223 0 18.51-8.29 18.51-18.515 0-10.226-8.287-18.516-18.51-18.516s-18.51 8.29-18.51 18.516c0 10.225 8.287 18.515 18.51 18.515z"/><path d="m586.012 804.013c10.223 0 18.51-8.29 18.51-18.515 0-10.226-8.287-18.516-18.51-18.516-10.222 0-18.509 8.29-18.509 18.516 0 10.225 8.287 18.515 18.509 18.515z"/><path d="m712.296 694.534c8.906 0 16.126-7.222 16.126-16.131s-7.22-16.131-16.126-16.131c-8.907 0-16.127 7.222-16.127 16.131s7.22 16.131 16.127 16.131z"/><path d="m667.254 736.128c8.906 0 16.126-7.222 16.126-16.131s-7.22-16.132-16.126-16.132c-8.907 0-16.127 7.223-16.127 16.132s7.22 16.131 16.127 16.131z"/><path d="m611.945 762.568c8.907 0 16.128-7.223 16.128-16.133s-7.221-16.133-16.128-16.133c-8.908 0-16.128 7.223-16.128 16.133s7.22 16.133 16.128 16.133z"/><path d="m706.595 655.935c7.761 0 14.052-6.293 14.052-14.056 0-7.762-6.291-14.055-14.052-14.055-7.76 0-14.051 6.293-14.051 14.055 0 7.763 6.291 14.056 14.051 14.056z"/><path d="m673.16 697.594c7.761 0 14.052-6.292 14.052-14.055s-6.291-14.055-14.052-14.055c-7.76 0-14.051 6.292-14.051 14.055s6.291 14.055 14.051 14.055z"/><path d="m616.237 719.514c-3.338-7.006-.369-15.395 6.641-18.731 7.006-3.342 15.392-.366 18.729 6.644 3.338 7.007.364 15.396-6.641 18.735-7.007 3.338-15.394.362-18.729-6.648z"/><path d="m697.025 619.695c6.761 0 12.242-5.483 12.242-12.246s-5.481-12.246-12.242-12.246-12.242 5.483-12.242 12.246 5.481 12.246 12.242 12.246z"/><path d="m673.678 659.956c6.761 0 12.242-5.483 12.242-12.246s-5.481-12.245-12.242-12.245-12.242 5.482-12.242 12.245 5.481 12.246 12.242 12.246z"/><path d="m639.486 691.528c6.761 0 12.241-5.482 12.241-12.244s-5.48-12.244-12.241-12.244c-6.76 0-12.24 5.482-12.24 12.244s5.48 12.244 12.24 12.244z"/><path d="m686.713 593.721c6.001 0 10.865-4.866 10.865-10.868s-4.864-10.868-10.865-10.868c-6 0-10.865 4.866-10.865 10.868s4.865 10.868 10.865 10.868z"/><path d="m671.522 632.127c6 0 10.863-4.865 10.863-10.866 0-6.002-4.863-10.867-10.863-10.867s-10.864 4.865-10.864 10.867c0 6.001 4.864 10.866 10.864 10.866z"/><path d="m645.673 664.337c6 0 10.864-4.866 10.864-10.867s-4.864-10.867-10.864-10.867c-5.999 0-10.863 4.866-10.863 10.867s4.864 10.867 10.863 10.867z"/><path d="m672.185 569.039c5.227 0 9.465-4.239 9.465-9.468s-4.238-9.468-9.465-9.468c-5.228 0-9.466 4.239-9.466 9.468s4.238 9.468 9.466 9.468z"/><path d="m664.122 604.108c5.227 0 9.464-4.238 9.464-9.466s-4.237-9.467-9.464-9.467-9.464 4.239-9.464 9.467 4.237 9.466 9.464 9.466z"/><path d="m646.072 635.235c5.226 0 9.464-4.238 9.464-9.466s-4.238-9.467-9.464-9.467c-5.227 0-9.464 4.239-9.464 9.467s4.237 9.466 9.464 9.466z"/><path d="m657.937 552.182c4.609 0 8.346-3.738 8.346-8.348 0-4.611-3.737-8.349-8.346-8.349-4.61 0-8.347 3.738-8.347 8.349 0 4.61 3.737 8.348 8.347 8.348z"/><path d="m655.494 583.821c4.609 0 8.346-3.738 8.346-8.349s-3.737-8.349-8.346-8.349c-4.61 0-8.347 3.738-8.347 8.349s3.737 8.349 8.347 8.349z"/><path d="m643.824 613.325c4.609 0 8.346-3.738 8.346-8.349s-3.737-8.348-8.346-8.348c-4.61 0-8.346 3.737-8.346 8.348s3.736 8.349 8.346 8.349z"/><path d="m642.297 537.288c4.015 0 7.271-3.256 7.271-7.273 0-4.016-3.256-7.273-7.271-7.273-4.016 0-7.271 3.257-7.271 7.273 0 4.017 3.255 7.273 7.271 7.273z"/><path d="m644.33 564.857c4.016 0 7.271-3.256 7.271-7.273s-3.255-7.273-7.271-7.273c-4.015 0-7.27 3.256-7.27 7.273s3.255 7.273 7.27 7.273z"/><path d="m638.138 591.803c4.017 0 7.273-3.257 7.273-7.274 0-4.018-3.256-7.275-7.273-7.275-4.016 0-7.272 3.257-7.272 7.275 0 4.017 3.256 7.274 7.272 7.274z"/><path d="m628.491 527.988c3.564 0 6.453-2.89 6.453-6.455s-2.889-6.455-6.453-6.455-6.454 2.89-6.454 6.455 2.89 6.455 6.454 6.455z"/><path d="m633.904 551.916c3.564 0 6.453-2.89 6.453-6.455s-2.889-6.455-6.453-6.455-6.453 2.89-6.453 6.455 2.889 6.455 6.453 6.455z"/><path d="m632.016 576.372c3.563 0 6.451-2.889 6.451-6.454 0-3.564-2.888-6.453-6.451-6.453-3.564 0-6.452 2.889-6.452 6.453 0 3.565 2.888 6.454 6.452 6.454z"/><path d="m614.02 520.497c3.105 0 5.621-2.517 5.621-5.623 0-3.105-2.516-5.622-5.621-5.622-3.104 0-5.621 2.517-5.621 5.622 0 3.106 2.517 5.623 5.621 5.623z"/><path d="m621.813 540.398c3.105 0 5.621-2.517 5.621-5.623 0-3.105-2.516-5.623-5.621-5.623-3.104 0-5.621 2.518-5.621 5.623 0 3.106 2.517 5.623 5.621 5.623z"/><path d="m623.385 561.717c3.106 0 5.623-2.519 5.623-5.625s-2.517-5.624-5.623-5.624c-3.105 0-5.622 2.518-5.622 5.624s2.517 5.625 5.622 5.625z"/></g><path d="m85.8222 772.531c19.3518-11.004 43.9648-4.247 54.9658 15.118 11.013 19.356 4.239 43.983-15.113 54.986-19.351 11.014-43.9679 4.244-54.97-15.112-11.0118-19.362-4.2376-43.985 15.1172-54.992z" fill="#f00"/><path d="m42.0073 625.175c21.7349-4.798 43.2586 8.928 48.0526 30.679 4.8117 21.746-8.9284 43.273-30.6666 48.074-21.7365 4.805-43.2602-8.931-48.059-30.675-4.80688-21.751 8.9333-43.274 30.673-48.078z" fill="#f00"/><path d="m43.6327 471.449c22.1832 1.834 38.6968 21.302 36.857 43.5-1.8189 22.197-21.3012 38.708-43.486 36.874-22.1864-1.828-38.69683-21.306-36.865029-43.497 1.825349-22.199 21.304429-38.708 43.494029-36.877z" fill="#f00"/><path d="m179.362 798.269c15.23-12.008 37.313-9.41 49.323 5.828 12.018 15.234 9.406 37.329-5.821 49.343-15.228 12.015-37.317 9.407-49.326-5.824-12.02-15.234-9.408-37.332 5.824-49.347z" fill="#f00"/><path d="m122.344 677.082c18.095-6.981 38.431 2.023 45.406 20.13 6.989 18.102-2.031 38.44-20.125 45.421-18.097 6.987-38.428-2.029-45.41-20.125-6.987-18.105 2.03-38.443 20.129-45.426z" fill="#f00"/><path d="m103.631 544.458c19.348-1.326 36.12 13.284 37.44 32.64 1.336 19.362-13.283 36.13-32.632 37.454-19.3482 1.333-36.1183-13.284-37.4454-32.636-1.3303-19.362 13.2871-36.129 32.6374-37.458z" fill="#f00"/><path d="m257.572 821.112c11.785-12.544 31.506-13.168 44.05-1.374 12.553 11.779 13.168 31.515 1.385 44.063-11.786 12.55-31.513 13.168-44.054 1.382-12.553-11.783-13.167-31.519-1.381-44.071z" fill="#f00"/><path d="m191.588 722.271c14.959-8.508 33.988-3.282 42.496 11.688 8.512 14.966 3.278 34.004-11.684 42.509-14.963 8.515-33.992 3.279-42.501-11.681-8.514-14.97-3.274-34.008 11.689-42.516z" fill="#f00"/><path d="m157.712 608.346c16.806-3.708 33.444 6.902 37.151 23.718 3.723 16.814-6.903 33.453-23.709 37.168-16.805 3.715-33.446-6.905-37.153-23.716-3.72-16.816 6.906-33.456 23.711-37.17z" fill="#f00"/><path d="m333.674 818.671c8.509-12.345 25.417-15.471 37.763-6.953 12.353 8.508 15.465 25.427 6.953 37.776-8.506 12.355-25.416 15.468-37.76 6.961-12.355-8.511-15.464-25.428-6.956-37.784z" fill="#f00"/><path d="m263.905 742.169c11.775-9.285 28.848-7.275 38.131 4.508 9.295 11.776 7.274 28.861-4.5 38.146-11.773 9.291-28.85 7.275-38.133-4.501-9.294-11.778-7.274-28.863 4.502-38.153z" fill="#f00"/><path d="m219.823 648.478c13.992-5.397 29.712 1.566 35.106 15.562 5.405 13.997-1.571 29.72-15.558 35.116-13.991 5.403-29.71-1.57-35.109-15.559-5.403-13.999 1.568-29.719 15.561-35.119z" fill="#f00"/><path d="m418.165 850.563c13.224 0 23.945-10.723 23.945-23.951s-10.721-23.951-23.945-23.951c-13.223 0-23.944 10.723-23.944 23.951s10.721 23.951 23.944 23.951z" fill="#f00"/><path d="m325.805 758.516c9.054-9.638 24.206-10.118 33.843-1.058 9.641 9.053 10.112 24.214 1.061 33.853-9.051 9.644-24.207 10.118-33.843 1.064-9.643-9.056-10.116-24.217-1.061-33.859z" fill="#f00"/><path d="m275.112 682.581c11.496-6.538 26.115-2.523 32.647 8.978 6.542 11.495 2.519 26.122-8.975 32.659-11.492 6.54-26.115 2.519-32.65-8.975-6.539-11.502-2.517-26.126 8.978-32.662z" fill="#f00"/><path d="m472.734 824.072c11.521 0 20.861-9.343 20.861-20.867 0-11.525-9.34-20.867-20.861-20.867s-20.861 9.342-20.861 20.867c0 11.524 9.34 20.867 20.861 20.867z" fill="#f00"/><path d="m384.272 756.639c6.536-9.486 19.526-11.886 29.012-5.343 9.49 6.538 11.88 19.535 5.341 29.024-6.535 9.489-19.526 11.883-29.009 5.345-9.494-6.54-11.882-19.536-5.344-29.026z" fill="#f00"/><path d="m330.673 697.865c9.044-7.132 22.162-5.589 29.296 3.462 7.137 9.047 5.584 22.172-3.459 29.307-9.045 7.136-22.166 5.586-29.299-3.46-7.139-9.048-5.586-22.173 3.462-29.309z" fill="#f00"/><path d="m515.654 803.685c10.223 0 18.51-8.289 18.51-18.515 0-10.225-8.287-18.515-18.51-18.515s-18.51 8.29-18.51 18.515c0 10.226 8.287 18.515 18.51 18.515z" fill="#f00"/><path d="m448.529 782.599c10.224 0 18.511-8.29 18.511-18.517 0-10.226-8.287-18.517-18.511-18.517s-18.512 8.291-18.512 18.517c0 10.227 8.288 18.517 18.512 18.517z" fill="#f00"/><path d="m377.124 711.434c7-7.451 18.713-7.823 26.165-.817 7.454 6.997 7.82 18.719.822 26.171-7 7.456-18.715 7.826-26.168.826-7.454-7.004-7.819-18.727-.819-26.18z" fill="#f00"/><path d="m551.297 771.495c8.906 0 16.127-7.222 16.127-16.131s-7.221-16.131-16.127-16.131c-8.907 0-16.127 7.222-16.127 16.131s7.22 16.131 16.127 16.131z" fill="#f00"/><path d="m475.329 741.16c2.664-8.5 11.713-13.234 20.209-10.566 8.503 2.661 13.234 11.713 10.572 20.215s-11.713 13.235-20.211 10.573c-8.501-2.664-13.234-11.716-10.57-20.222z" fill="#f00"/><path d="m422.327 709.985c5.056-7.334 15.095-9.189 22.429-4.131 7.338 5.054 9.184 15.099 4.131 22.437-5.052 7.337-15.095 9.186-22.427 4.132-7.342-5.052-9.188-15.1-4.133-22.438z" fill="#f00"/><path d="m577.819 743.061c7.761 0 14.052-6.293 14.052-14.056 0-7.762-6.291-14.055-14.052-14.055-7.76 0-14.051 6.293-14.051 14.055 0 7.763 6.291 14.056 14.051 14.056z" fill="#f00"/><path d="m524.41 742.812c7.76 0 14.051-6.293 14.051-14.055 0-7.763-6.291-14.056-14.051-14.056s-14.051 6.293-14.051 14.056c0 7.762 6.291 14.055 14.051 14.055z" fill="#f00"/><path d="m473.455 726.805c7.76 0 14.051-6.293 14.051-14.055 0-7.763-6.291-14.056-14.051-14.056s-14.051 6.293-14.051 14.056c0 7.762 6.291 14.055 14.051 14.055z" fill="#f00"/><path d="m597.502 711.598c6.761 0 12.242-5.482 12.242-12.246 0-6.763-5.481-12.245-12.242-12.245-6.762 0-12.243 5.482-12.243 12.245 0 6.764 5.481 12.246 12.243 12.246z" fill="#f00"/><path d="m551.466 718.376c6.761 0 12.242-5.483 12.242-12.246s-5.481-12.246-12.242-12.246-12.242 5.483-12.242 12.246 5.481 12.246 12.242 12.246z" fill="#f00"/><path d="m505.481 711.258c6.762 0 12.244-5.484 12.244-12.248s-5.482-12.247-12.244-12.247-12.244 5.483-12.244 12.247 5.482 12.248 12.244 12.248z" fill="#f00"/><path d="m611.469 687.476c6 0 10.864-4.865 10.864-10.866 0-6.002-4.864-10.867-10.864-10.867s-10.863 4.865-10.863 10.867c0 6.001 4.863 10.866 10.863 10.866z" fill="#f00"/><path d="m571.961 699.486c6 0 10.864-4.865 10.864-10.866 0-6.002-4.864-10.867-10.864-10.867s-10.863 4.865-10.863 10.867c0 6.001 4.863 10.866 10.863 10.866z" fill="#f00"/><path d="m530.67 699.294c6 0 10.863-4.865 10.863-10.866 0-6.002-4.863-10.867-10.863-10.867s-10.864 4.865-10.864 10.867c0 6.001 4.864 10.866 10.864 10.866z" fill="#f00"/><path d="m619.638 659.646c5.227 0 9.464-4.238 9.464-9.466 0-5.229-4.237-9.467-9.464-9.467s-9.464 4.238-9.464 9.467c0 5.228 4.237 9.466 9.464 9.466z" fill="#f00"/><path d="m587.178 675.163c5.228 0 9.466-4.239 9.466-9.468s-4.238-9.468-9.466-9.468c-5.227 0-9.465 4.239-9.465 9.468s4.238 9.468 9.465 9.468z" fill="#f00"/><path d="m551.586 680.402c5.227 0 9.465-4.239 9.465-9.468s-4.238-9.468-9.465-9.468c-5.228 0-9.466 4.239-9.466 9.468s4.238 9.468 9.466 9.468z" fill="#f00"/><path d="m623.964 638.071c4.61 0 8.347-3.738 8.347-8.349s-3.737-8.348-8.347-8.348c-4.609 0-8.346 3.737-8.346 8.348s3.737 8.349 8.346 8.349z" fill="#f00"/><path d="m597.687 655.848c4.609 0 8.345-3.738 8.345-8.348 0-4.609-3.736-8.347-8.345-8.347s-8.345 3.738-8.345 8.347c0 4.61 3.736 8.348 8.345 8.348z" fill="#f00"/><path d="m567.335 665.074c4.609 0 8.345-3.737 8.345-8.347s-3.736-8.347-8.345-8.347-8.345 3.737-8.345 8.347 3.736 8.347 8.345 8.347z" fill="#f00"/><path d="m624.271 615.715c4.015 0 7.271-3.256 7.271-7.272 0-4.017-3.256-7.273-7.271-7.273-4.016 0-7.271 3.256-7.271 7.273 0 4.016 3.255 7.272 7.271 7.272z" fill="#f00"/><path d="m603.963 634.466c4.015 0 7.271-3.256 7.271-7.273 0-4.016-3.256-7.273-7.271-7.273-4.016 0-7.271 3.257-7.271 7.273 0 4.017 3.255 7.273 7.271 7.273z" fill="#f00"/><path d="m579.026 646.389c4.016 0 7.272-3.257 7.272-7.274 0-4.018-3.256-7.275-7.272-7.275-4.017 0-7.273 3.257-7.273 7.275 0 4.017 3.256 7.274 7.273 7.274z" fill="#f00"/><path d="m622.992 599.184c3.563 0 6.452-2.889 6.452-6.453 0-3.565-2.889-6.454-6.452-6.454s-6.452 2.889-6.452 6.454c0 3.564 2.889 6.453 6.452 6.453z" fill="#f00"/><path d="m607.638 618.317c3.564 0 6.453-2.89 6.453-6.455s-2.889-6.455-6.453-6.455-6.453 2.89-6.453 6.455 2.889 6.455 6.453 6.455z" fill="#f00"/><path d="m587.322 632.061c3.564 0 6.453-2.89 6.453-6.455s-2.889-6.455-6.453-6.455-6.453 2.89-6.453 6.455 2.889 6.455 6.453 6.455z" fill="#f00"/><path d="m618.596 582.545c3.105 0 5.622-2.518 5.622-5.623s-2.517-5.623-5.622-5.623c-3.104 0-5.621 2.518-5.621 5.623s2.517 5.623 5.621 5.623z" fill="#f00"/><path d="m607.876 601.033c3.105 0 5.622-2.518 5.622-5.623 0-3.106-2.517-5.623-5.622-5.623-3.104 0-5.621 2.517-5.621 5.623 0 3.105 2.517 5.623 5.621 5.623z" fill="#f00"/><path d="m592.175 615.53c3.105 0 5.622-2.518 5.622-5.623s-2.517-5.623-5.622-5.623c-3.104 0-5.621 2.518-5.621 5.623s2.517 5.623 5.621 5.623z" fill="#f00"/><path d="m90.5533 325.054c20.6527 8.302 30.6857 31.781 22.3787 52.444-8.29 20.672-31.7747 30.693-52.4309 22.391-20.661-8.297-30.6859-31.785-22.3864-52.444 8.2963-20.673 31.7776-30.691 52.4386-22.391z" fill="#ffd200"/><path d="m178.585 199.038c17.282 14.03 19.94 39.424 5.905 56.714-14.023 17.305-39.416 19.941-56.701 5.911-17.295-14.026-19.94-39.427-5.913-56.716 14.027-17.303 39.421-19.938 56.709-5.909z" fill="#ffd200"/><path d="m299.885 104.635c12.373 18.507 7.416 43.555-11.095 55.928-18.507 12.394-43.546 7.414-55.92-11.094-12.384-18.509-7.415-43.559 11.09-55.9364 18.507-12.3892 43.546-7.41 55.925 11.1024z" fill="#ffd200"/><path d="m124.895 412.216c18.876 4.448 30.589 23.359 26.137 42.242-4.436 18.892-23.356 30.596-42.232 26.147-18.8804-4.439-30.5888-23.359-26.1447-42.24 4.4424-18.891 23.3567-30.593 42.2397-26.149z" fill="#ffd200"/><path d="m184.235 292.148c16.722 9.822 22.335 31.35 12.505 48.079-9.812 16.741-31.342 22.337-48.069 12.512-16.726-9.818-22.331-31.351-12.51-48.081 9.82-16.736 31.346-22.331 48.074-12.51z" fill="#ffd200"/><path d="m276.367 194.953c13.077 14.324 12.084 36.546-2.24 49.631-14.319 13.094-36.539 12.084-49.618-2.239-13.089-14.322-12.086-36.55 2.236-49.631 14.319-13.094 36.536-12.085 49.622 2.239z" fill="#ffd200"/><path d="m158.969 489.498c17.149 1.417 29.916 16.47 28.496 33.63-1.408 17.164-16.469 29.925-33.621 28.511-17.155-1.415-29.92-16.473-28.503-33.627 1.413-17.167 16.474-29.929 33.628-28.514z" fill="#ffd200"/><path d="m195.245 376.316c15.967 6.418 23.725 24.569 17.301 40.543-6.407 15.985-24.562 23.729-40.534 17.314-15.973-6.415-23.725-24.572-17.308-40.547 6.412-15.983 24.566-23.726 40.541-17.31z" fill="#ffd200"/><path d="m263.304 278.891c13.363 10.847 15.417 30.479 4.567 43.847-10.845 13.378-30.474 15.417-43.838 4.57-13.372-10.844-15.417-30.481-4.57-43.85 10.841-13.377 30.475-15.414 43.841-4.567z" fill="#ffd200"/><path d="m205.355 545.942c14.96-1.024 27.926 10.269 28.946 25.236 1.032 14.97-10.27 27.933-25.229 28.954-14.957 1.034-27.922-10.269-28.949-25.231-1.029-14.968 10.275-27.93 25.232-28.959z" fill="#ffd200"/><path d="m221.795 443.704c14.593 3.437 23.649 18.057 20.205 32.659-3.429 14.606-18.056 23.653-32.649 20.216-14.598-3.434-23.649-18.061-20.212-32.657 3.434-14.608 18.058-23.655 32.656-20.218z" fill="#ffd200"/><path d="m267.674 350.878c12.929 7.592 17.267 24.236 9.667 37.171-7.585 12.94-24.23 17.27-37.162 9.673-12.932-7.591-17.265-24.238-9.67-37.174 7.588-12.938 24.231-17.266 37.165-9.67z" fill="#ffd200"/><path d="m249.088 595.058c12.91-2.852 25.694 5.302 28.54 18.222 2.859 12.916-5.3 25.701-18.213 28.551-12.91 2.855-25.694-5.305-28.543-18.219-2.856-12.919 5.303-25.704 18.216-28.554z" fill="#ffd200"/><path d="m250.056 503.751c13.174 1.088 22.984 12.653 21.891 25.837-1.08 13.184-12.652 22.988-25.829 21.901-13.181-1.084-22.985-12.656-21.898-25.837 1.084-13.186 12.655-22.989 25.836-21.901z" fill="#ffd200"/><path d="m277.921 416.8c12.267 4.931 18.23 18.873 13.294 31.148-4.926 12.279-18.875 18.231-31.141 13.3-12.273-4.931-18.226-18.88-13.297-31.149 4.928-12.278 18.875-18.228 31.144-13.299z" fill="#ffd200"/><path d="m296.804 625.887c10.749-4.146 22.826 1.2 26.972 11.955 4.151 10.752-1.206 22.833-11.955 26.98-10.749 4.149-22.823-1.206-26.972-11.952-4.148-10.755 1.206-22.838 11.955-26.983z" fill="#ffd200"/><path d="m285.692 547.113c11.489-.787 21.454 7.892 22.235 19.388.793 11.498-7.89 21.46-19.383 22.244-11.492.794-21.454-7.889-22.241-19.385-.788-11.498 7.893-21.455 19.389-22.247z" fill="#ffd200"/><path d="m298.321 468.569c11.209 2.644 18.167 13.875 15.524 25.09-2.637 11.222-13.874 18.175-25.086 15.531-11.215-2.637-18.17-13.874-15.53-25.089 2.643-11.222 13.877-18.172 25.092-15.532z" fill="#ffd200"/><path d="m347.082 687.337c10.222 0 18.509-8.289 18.509-18.515 0-10.225-8.287-18.515-18.509-18.515-10.223 0-18.51 8.29-18.51 18.515 0 10.226 8.287 18.515 18.51 18.515z" fill="#ffd200"/><path d="m317.811 585.063c9.982-2.205 19.865 4.098 22.067 14.087 2.211 9.986-4.098 19.869-14.082 22.075-9.979 2.205-19.864-4.101-22.068-14.087-2.208-9.988 4.104-19.87 14.083-22.075z" fill="#ffd200"/><path d="m318.558 514.47c10.186.843 17.77 9.781 16.926 19.976-.836 10.194-9.781 17.775-19.969 16.933-10.188-.84-17.771-9.784-16.928-19.973.839-10.197 9.783-17.775 19.971-16.936z" fill="#ffd200"/><path d="m380.886 664.545c6.993-5.513 17.133-4.32 22.648 2.677 5.521 6.994 4.321 17.141-2.672 22.658-6.994 5.519-17.135 4.322-22.649-2.672-5.522-6.997-4.32-17.144 2.673-22.663z" fill="#ffd200"/><path d="m360.509 640.079c8.906 0 16.126-7.222 16.126-16.131s-7.22-16.131-16.126-16.131c-8.907 0-16.127 7.222-16.127 16.131s7.22 16.131 16.127 16.131z" fill="#ffd200"/><path d="m346.111 547.995c8.885-.608 16.586 6.099 17.192 14.989.613 8.891-6.1 16.593-14.985 17.198-8.885.614-16.584-6.099-17.195-14.986-.61-8.891 6.103-16.59 14.988-17.201z" fill="#ffd200"/><path d="m429.497 696.464c7.76 0 14.051-6.293 14.051-14.056 0-7.762-6.291-14.055-14.051-14.055-7.761 0-14.052 6.293-14.052 14.055 0 7.763 6.291 14.056 14.052 14.056z" fill="#ffd200"/><path d="m396.45 654.493c7.76 0 14.051-6.293 14.051-14.056 0-7.762-6.291-14.055-14.051-14.055s-14.051 6.293-14.051 14.055c0 7.763 6.291 14.056 14.051 14.056z" fill="#ffd200"/><path d="m377.261 604.638c7.761 0 14.053-6.294 14.053-14.057 0-7.764-6.292-14.057-14.053-14.057s-14.053 6.293-14.053 14.057c0 7.763 6.292 14.057 14.053 14.057z" fill="#ffd200"/><path d="m463.646 690.876c6.761 0 12.242-5.482 12.242-12.245s-5.481-12.246-12.242-12.246-12.242 5.483-12.242 12.246 5.481 12.245 12.242 12.245z" fill="#ffd200"/><path d="m422.11 637.19c5.308-4.184 13.005-3.279 17.192 2.033 4.189 5.311 3.278 13.01-2.03 17.2-5.308 4.188-13.006 3.28-17.194-2.032-4.188-5.308-3.278-13.01 2.032-17.201z" fill="#ffd200"/><path d="m406.639 618.622c6.762 0 12.244-5.483 12.244-12.247s-5.482-12.248-12.244-12.248-12.243 5.484-12.243 12.248 5.481 12.247 12.243 12.247z" fill="#ffd200"/><path d="m491.276 686.92c6 0 10.864-4.865 10.864-10.867 0-6.001-4.864-10.866-10.864-10.866-5.999 0-10.863 4.865-10.863 10.866 0 6.002 4.864 10.867 10.863 10.867z" fill="#ffd200"/><path d="m457.29 663.461c5.999 0 10.863-4.865 10.863-10.867 0-6.001-4.864-10.866-10.863-10.866-6 0-10.864 4.865-10.864 10.866 0 6.002 4.864 10.867 10.864 10.867z" fill="#ffd200"/><path d="m431.741 631.013c6 0 10.864-4.865 10.864-10.867 0-6.001-4.864-10.866-10.864-10.866s-10.863 4.865-10.863 10.866c0 6.002 4.863 10.867 10.863 10.867z" fill="#ffd200"/><path d="m516.035 674.9c5.227 0 9.465-4.239 9.465-9.468s-4.238-9.468-9.465-9.468c-5.228 0-9.466 4.239-9.466 9.468s4.238 9.468 9.466 9.468z" fill="#ffd200"/><path d="m483.691 659.141c5.227 0 9.464-4.238 9.464-9.466s-4.237-9.467-9.464-9.467-9.464 4.239-9.464 9.467 4.237 9.466 9.464 9.466z" fill="#ffd200"/><path d="m457.44 634.539c5.227 0 9.465-4.239 9.465-9.468 0-5.23-4.238-9.469-9.465-9.469-5.228 0-9.466 4.239-9.466 9.469 0 5.229 4.238 9.468 9.466 9.468z" fill="#ffd200"/><path d="m535.614 664.927c4.609 0 8.346-3.738 8.346-8.349s-3.737-8.349-8.346-8.349c-4.61 0-8.347 3.738-8.347 8.349s3.737 8.349 8.347 8.349z" fill="#ffd200"/><path d="m505.349 655.42c4.609 0 8.346-3.738 8.346-8.349 0-4.61-3.737-8.348-8.346-8.348-4.61 0-8.347 3.738-8.347 8.348 0 4.611 3.737 8.349 8.347 8.349z" fill="#ffd200"/><path d="m479.239 637.397c4.609 0 8.345-3.737 8.345-8.347s-3.736-8.347-8.345-8.347-8.345 3.737-8.345 8.347 3.736 8.347 8.345 8.347z" fill="#ffd200"/><path d="m551.682 650.413c4.017 0 7.273-3.256 7.273-7.274s-3.256-7.274-7.273-7.274c-4.016 0-7.272 3.256-7.272 7.274s3.256 7.274 7.272 7.274z" fill="#ffd200"/><path d="m524.37 646.186c4.016 0 7.272-3.257 7.272-7.275 0-4.017-3.256-7.274-7.272-7.274-4.017 0-7.273 3.257-7.273 7.274 0 4.018 3.256 7.275 7.273 7.275z" fill="#ffd200"/><path d="m499.523 634.079c4.015 0 7.27-3.256 7.27-7.273s-3.255-7.273-7.27-7.273c-4.016 0-7.271 3.256-7.271 7.273s3.255 7.273 7.271 7.273z" fill="#ffd200"/><path d="m563.857 639.192c3.563 0 6.451-2.889 6.451-6.453 0-3.565-2.888-6.454-6.451-6.454s-6.452 2.889-6.452 6.454c0 3.564 2.889 6.453 6.452 6.453z" fill="#ffd200"/><path d="m539.332 639.079c3.563 0 6.452-2.889 6.452-6.453s-2.889-6.454-6.452-6.454-6.451 2.89-6.451 6.454 2.888 6.453 6.451 6.453z" fill="#ffd200"/><path d="m515.933 631.727c3.563 0 6.452-2.889 6.452-6.453s-2.889-6.454-6.452-6.454-6.451 2.89-6.451 6.454 2.888 6.453 6.451 6.453z" fill="#ffd200"/><path d="m572.896 624.746c3.105 0 5.622-2.517 5.622-5.622 0-3.106-2.517-5.623-5.622-5.623-3.104 0-5.621 2.517-5.621 5.623 0 3.105 2.517 5.622 5.621 5.622z" fill="#ffd200"/><path d="m551.756 627.858c3.105 0 5.622-2.518 5.622-5.623s-2.517-5.623-5.622-5.623c-3.104 0-5.621 2.518-5.621 5.623s2.517 5.623 5.621 5.623z" fill="#ffd200"/><path d="m530.641 624.588c3.104 0 5.621-2.517 5.621-5.623 0-3.105-2.517-5.622-5.621-5.622-3.105 0-5.621 2.517-5.621 5.622 0 3.106 2.516 5.623 5.621 5.623z" fill="#ffd200"/><path d="m551.677 80.6482c22.264 0 40.313-18.0537 40.313-40.3241s-18.049-40.3241-40.313-40.3241-40.312 18.0537-40.312 40.3241 18.048 40.3241 40.312 40.3241z" fill="#8bde14"/><path d="m703.188 103.485c22.264 0 40.313-18.0542 40.313-40.3246 0-22.2703-18.049-40.3241-40.313-40.3241s-40.312 18.0538-40.312 40.3241c0 22.2704 18.048 40.3246 40.312 40.3246z" fill="#8bde14"/><path d="m443.64 50.2535c6.36 21.3347-5.768 43.8049-27.106 50.1585-21.339 6.376-43.794-5.7745-50.156-27.1125-6.367-21.3395 5.771-43.8048 27.107-50.1664 21.336-6.3696 43.79 5.7809 50.155 27.1204z" fill="#8bde14"/><path d="m618.329 141.567c19.397 0 35.122-15.729 35.122-35.132 0-19.4032-15.725-35.1323-35.122-35.1323-19.398 0-35.122 15.7291-35.122 35.1323 0 19.403 15.724 35.132 35.122 35.132z" fill="#8bde14"/><path d="m393.075 129.295c8.27 17.544.764 38.486-16.783 46.754-17.547 8.284-38.476.758-46.746-16.79-8.281-17.544-.763-38.485 16.779-46.758 17.546-8.283 38.476-.756 46.75 16.794z" fill="#8bde14"/><path d="m523.96 101.023c2.722 19.204-10.631 36.998-29.834 39.715-19.208 2.735-36.988-10.636-39.713-29.843-2.725-19.2109 10.636-36.9987 29.836-39.7213 19.21-2.7292 36.986 10.6407 39.711 29.8493z" fill="#8bde14"/><path d="m551.748 187.362c17.213 0 31.167-13.958 31.167-31.175 0-17.218-13.954-31.176-31.167-31.176-17.212 0-31.166 13.958-31.166 31.176 0 17.217 13.954 31.175 31.166 31.175z" fill="#8bde14"/><path d="m357.084 205.905c9.565 14.307 5.732 33.672-8.579 43.238-14.307 9.581-33.664 5.733-43.232-8.574-9.576-14.309-5.733-33.676 8.575-43.245 14.308-9.58 33.667-5.73 43.236 8.581z" fill="#8bde14"/><path d="m468.224 163.861c4.917 16.494-4.46 33.866-20.956 38.781-16.496 4.929-33.859-4.467-38.776-20.961-4.923-16.499 4.46-33.867 20.956-38.785 16.496-4.926 33.856 4.468 38.776 20.965z" fill="#8bde14"/><path d="m338.9 275.731c10.112 11.075 9.344 28.256-1.73 38.37-11.07 10.124-28.25 9.344-38.362-1.729-10.118-11.072-9.341-28.258 1.729-38.371 11.071-10.123 28.249-9.343 38.363 1.73z" fill="#8bde14"/><path d="m429.131 224.97c6.395 13.563.59 29.754-12.975 36.145-13.566 6.406-29.747.587-36.141-12.98-6.403-13.562-.588-29.752 12.973-36.148 13.564-6.403 29.747-.587 36.143 12.983z" fill="#8bde14"/><path d="m530.322 203.113c2.105 14.849-8.219 28.604-23.067 30.704-14.852 2.115-28.595-8.223-30.704-23.072-2.108-14.854 8.224-28.604 23.07-30.711 14.85-2.108 28.593 8.23 30.701 23.079z" fill="#8bde14"/><path d="m330.212 341.95c10.263 8.333 11.842 23.417 3.505 33.685-8.327 10.28-23.41 11.846-33.677 3.513-10.273-8.332-11.845-23.42-3.512-33.688 8.33-10.276 23.413-11.842 33.684-3.51z" fill="#8bde14"/><path d="m402.257 285.88c7.348 10.991 4.402 25.869-6.592 33.219-10.991 7.36-25.863 4.402-33.215-6.59-7.354-10.993-4.402-25.871 6.589-33.223 10.992-7.36 25.865-4.401 33.218 6.594z" fill="#8bde14"/><path d="m487.639 253.579c3.779 12.671-3.424 26.019-16.096 29.793-12.676 3.787-26.015-3.431-29.791-16.102-3.783-12.675 3.426-26.019 16.099-29.798 12.672-3.784 26.008 3.434 29.788 16.107z" fill="#8bde14"/><path d="m333.567 397.255c9.93 5.833 13.266 18.619 7.426 28.556-5.826 9.946-18.617 13.267-28.55 7.431-9.936-5.831-13.262-18.621-7.428-28.557 5.829-9.941 18.616-13.265 28.552-7.43z" fill="#8bde14"/><path d="m388.287 339.524c7.766 8.509 7.178 21.707-1.328 29.479-8.506 7.776-21.703 7.177-29.472-1.329-7.772-8.507-7.177-21.709 1.329-29.479 8.502-7.778 21.699-7.178 29.471 1.329z" fill="#8bde14"/><path d="m457.607 300.528c4.914 10.419.453 22.858-9.968 27.768-10.422 4.921-22.853.45-27.766-9.973-4.92-10.419-.453-22.859 9.969-27.772 10.418-4.919 22.852-.448 27.765 9.977z" fill="#8bde14"/><path d="m340.104 447.244c9.487 3.812 14.093 14.596 10.277 24.082-3.804 9.496-14.59 14.094-24.077 10.286-9.488-3.812-14.09-14.596-10.279-24.085 3.81-9.492 14.593-14.094 24.079-10.283z" fill="#8bde14"/><path d="m380.53 389.381c7.935 6.442 9.155 18.104 2.712 26.043-6.44 7.945-18.102 9.155-26.036 2.713-7.943-6.439-9.157-18.106-2.715-26.045 6.439-7.944 18.099-9.153 26.039-2.711z" fill="#8bde14"/><path d="m436.23 346.029c5.681 8.499 3.404 19.999-5.095 25.682-8.498 5.69-19.995 3.405-25.678-5.092-5.687-8.501-3.404-20.001 5.093-25.687 8.499-5.69 19.995-3.403 25.68 5.097z" fill="#8bde14"/><path d="m355.876 487.27c8.667 2.045 14.047 10.726 12 19.399-2.036 8.673-10.723 14.048-19.39 12.006-8.67-2.039-14.047-10.727-12.005-19.396 2.038-8.676 10.723-14.051 19.395-12.009z" fill="#8bde14"/><path d="m374.96 462.179c8.907 0 16.127-7.222 16.127-16.131s-7.22-16.132-16.127-16.132c-8.906 0-16.127 7.223-16.127 16.132s7.221 16.131 16.127 16.131z" fill="#8bde14"/><path d="m425.431 387.503c6.007 6.578 5.551 16.782-1.028 22.788-6.576 6.015-16.778 5.551-22.785-1.027-6.011-6.575-5.547-16.783 1.027-22.79 6.574-6.011 16.778-5.547 22.786 1.029z" fill="#8bde14"/><path d="m373.643 551.336c7.76 0 14.051-6.293 14.051-14.056 0-7.762-6.291-14.055-14.051-14.055-7.761 0-14.052 6.293-14.052 14.055 0 7.763 6.291 14.056 14.052 14.056z" fill="#8bde14"/><path d="m391.153 472.242c7.198 2.892 10.697 11.076 7.8 18.278-2.888 7.209-11.075 10.699-18.275 7.807-7.203-2.892-10.697-11.079-7.803-18.281 2.891-7.205 11.076-10.699 18.278-7.804z" fill="#8bde14"/><path d="m421.839 428.315c6.023 4.892 6.951 13.744 2.057 19.768-4.887 6.033-13.74 6.954-19.764 2.063-6.028-4.889-6.952-13.744-2.061-19.772 4.889-6.029 13.742-6.948 19.768-2.059z" fill="#8bde14"/><path d="m396.548 573.183c6.761 0 12.242-5.482 12.242-12.246 0-6.763-5.481-12.245-12.242-12.245s-12.242 5.482-12.242 12.245c0 6.764 5.481 12.246 12.242 12.246z" fill="#8bde14"/><path d="m400.318 526.789c6.761 0 12.242-5.482 12.242-12.245s-5.481-12.246-12.242-12.246-12.242 5.483-12.242 12.246 5.481 12.245 12.242 12.245z" fill="#8bde14"/><path d="m423.808 460.772c5.829 3.421 7.785 10.925 4.358 16.757-3.42 5.838-10.923 7.788-16.755 4.364-5.829-3.425-7.784-10.928-4.36-16.761 3.421-5.834 10.926-7.784 16.757-4.36z" fill="#8bde14"/><path d="m416.906 592.469c6.001 0 10.865-4.865 10.865-10.868 0-6.002-4.864-10.868-10.865-10.868-6 0-10.865 4.866-10.865 10.868 0 6.003 4.865 10.868 10.865 10.868z" fill="#8bde14"/><path d="m414.108 551.258c6 0 10.864-4.865 10.864-10.867 0-6.001-4.864-10.866-10.864-10.866-5.999 0-10.863 4.865-10.863 10.866 0 6.002 4.864 10.867 10.863 10.867z" fill="#8bde14"/><path d="m423.595 511.06c5.999 0 10.863-4.865 10.863-10.867 0-6.001-4.864-10.866-10.863-10.866-6 0-10.864 4.865-10.864 10.866 0 6.002 4.864 10.867 10.864 10.867z" fill="#8bde14"/><path d="m439.618 603.278c5.228 0 9.466-4.239 9.466-9.468s-4.238-9.468-9.466-9.468c-5.227 0-9.465 4.239-9.465 9.468s4.238 9.468 9.465 9.468z" fill="#8bde14"/><path d="m431.817 568.147c5.227 0 9.464-4.238 9.464-9.466s-4.237-9.467-9.464-9.467-9.464 4.239-9.464 9.467 4.237 9.466 9.464 9.466z" fill="#8bde14"/><path d="m436.9 513.6c5.087 1.197 8.244 6.294 7.043 11.383-1.195 5.09-6.294 8.247-11.381 7.047-5.088-1.197-8.243-6.294-7.045-11.383 1.196-5.094 6.295-8.247 11.383-7.047z" fill="#8bde14"/><path d="m459.61 612.472c4.61 0 8.348-3.739 8.348-8.351 0-4.611-3.738-8.35-8.348-8.35s-8.348 3.739-8.348 8.35c0 4.612 3.738 8.351 8.348 8.351z" fill="#8bde14"/><path d="m448.213 582.858c4.609 0 8.346-3.738 8.346-8.349s-3.737-8.349-8.346-8.349c-4.61 0-8.346 3.738-8.346 8.349s3.736 8.349 8.346 8.349z" fill="#8bde14"/><path d="m446.063 551.2c4.61 0 8.347-3.738 8.347-8.349s-3.737-8.348-8.347-8.348c-4.609 0-8.346 3.737-8.346 8.348s3.737 8.349 8.346 8.349z" fill="#8bde14"/><path d="m479.354 615.18c4.016 0 7.272-3.257 7.272-7.275 0-4.017-3.256-7.274-7.272-7.274-4.017 0-7.273 3.257-7.273 7.274 0 4.018 3.256 7.275 7.273 7.275z" fill="#8bde14"/><path d="m465.663 591.163c4.016 0 7.271-3.256 7.271-7.273s-3.255-7.273-7.271-7.273c-4.015 0-7.27 3.256-7.27 7.273s3.255 7.273 7.27 7.273z" fill="#8bde14"/><path d="m459.67 564.175c4.015 0 7.27-3.256 7.27-7.273s-3.255-7.273-7.27-7.273c-4.016 0-7.271 3.256-7.271 7.273s3.255 7.273 7.271 7.273z" fill="#8bde14"/><path d="m495.748 617.798c3.564 0 6.453-2.89 6.453-6.455s-2.889-6.455-6.453-6.455-6.453 2.89-6.453 6.455 2.889 6.455 6.453 6.455z" fill="#8bde14"/><path d="m480.573 598.521c3.563 0 6.451-2.889 6.451-6.453s-2.888-6.454-6.451-6.454c-3.564 0-6.452 2.89-6.452 6.454s2.888 6.453 6.452 6.453z" fill="#8bde14"/><path d="m471.76 575.63c3.564 0 6.453-2.89 6.453-6.455s-2.889-6.455-6.453-6.455-6.453 2.89-6.453 6.455 2.889 6.455 6.453 6.455z" fill="#8bde14"/><path d="m511.429 615.23c3.105 0 5.622-2.518 5.622-5.623s-2.517-5.623-5.622-5.623c-3.104 0-5.621 2.518-5.621 5.623s2.517 5.623 5.621 5.623z" fill="#8bde14"/><path d="m495.838 600.616c3.105 0 5.621-2.517 5.621-5.622 0-3.106-2.516-5.623-5.621-5.623-3.104 0-5.621 2.517-5.621 5.623 0 3.105 2.517 5.622 5.621 5.622z" fill="#8bde14"/><path d="m485.252 582.05c3.105 0 5.621-2.518 5.621-5.623 0-3.106-2.516-5.623-5.621-5.623-3.104 0-5.621 2.517-5.621 5.623 0 3.105 2.517 5.623 5.621 5.623z" fill="#8bde14"/><path d="m841.209 170.044c22.264 0 40.312-18.054 40.312-40.325 0-22.27-18.048-40.3236-40.312-40.3236s-40.313 18.0536-40.313 40.3236c0 22.271 18.049 40.325 40.313 40.325z" fill="#75e3f2"/><path d="m953.436 274.393c22.264 0 40.312-18.054 40.312-40.324 0-22.271-18.048-40.324-40.312-40.324s-40.313 18.053-40.313 40.324c0 22.27 18.049 40.324 40.313 40.324z" fill="#75e3f2"/><path d="m1029.87 407.23c22.26 0 40.31-18.054 40.31-40.324s-18.05-40.324-40.31-40.324c-22.27 0-40.317 18.054-40.317 40.324s18.047 40.324 40.317 40.324z" fill="#75e3f2"/><path d="m745.921 180.831c19.397 0 35.121-15.728 35.121-35.13s-15.724-35.131-35.121-35.131c-19.396 0-35.12 15.729-35.12 35.131s15.724 35.13 35.12 35.13z" fill="#75e3f2"/><path d="m856.242 256.021c19.397 0 35.122-15.729 35.122-35.132s-15.725-35.132-35.122-35.132-35.122 15.729-35.122 35.132 15.725 35.132 35.122 35.132z" fill="#75e3f2"/><path d="m956.991 355.744c-16.802 9.684-38.28 3.92-47.968-12.892s-3.914-38.292 12.89-47.983c16.805-9.692 38.282-3.921 47.969 12.889 9.686 16.812 3.913 38.295-12.891 47.986z" fill="#75e3f2"/><path d="m698.664 183.044c-5.08 16.449-22.532 25.669-38.978 20.586-16.449-5.082-25.655-22.544-20.575-38.993 5.076-16.447 22.531-25.666 38.974-20.581 16.449 5.082 25.658 22.539 20.579 38.988z" fill="#75e3f2"/><path d="m801.325 242.883c-9.707 14.219-29.101 17.875-43.313 8.16-14.213-9.711-17.86-29.112-8.152-43.329 9.708-14.216 29.101-17.87 43.311-8.158 14.217 9.713 17.863 29.112 8.154 43.327z" fill="#75e3f2"/><path d="m881.755 330.374c-13.472 10.715-33.079 8.484-43.789-4.995-10.717-13.477-8.475-33.092 4.996-43.807 13.47-10.715 33.078-8.479 43.789 4.997 10.713 13.478 8.473 33.09-4.996 43.805z" fill="#75e3f2"/><path d="m603.281 234.459c14.996 0 27.153-12.16 27.153-27.161 0-15-12.157-27.16-27.153-27.16s-27.153 12.16-27.153 27.16c0 15.001 12.157 27.161 27.153 27.161z" fill="#75e3f2"/><path d="m701.926 264.813c14.995 0 27.151-12.159 27.151-27.159 0-14.999-12.156-27.159-27.151-27.159-14.996 0-27.152 12.16-27.152 27.159 0 15 12.156 27.159 27.152 27.159z" fill="#75e3f2"/><path d="m807.119 314.26c-10.204 10.998-27.389 11.64-38.379 1.434-10.993-10.207-11.628-27.393-1.424-38.39 10.201-10.991 27.38-11.634 38.373-1.427 10.989 10.206 11.627 27.394 1.43 38.383z" fill="#75e3f2"/><path d="m551.81 271.633c13.224 0 23.944-10.723 23.944-23.951s-10.72-23.951-23.944-23.951-23.944 10.723-23.944 23.951 10.72 23.951 23.944 23.951z" fill="#75e3f2"/><path d="m641.8 285.195c13.223 0 23.943-10.723 23.943-23.95 0-13.226-10.72-23.949-23.943-23.949s-23.942 10.723-23.942 23.949c0 13.227 10.719 23.95 23.942 23.95z" fill="#75e3f2"/><path d="m723.777 324.73c13.224 0 23.944-10.723 23.944-23.951s-10.72-23.951-23.944-23.951-23.944 10.723-23.944 23.951 10.72 23.951 23.944 23.951z" fill="#75e3f2"/><path d="m591.398 307.817c11.521 0 20.861-9.343 20.861-20.867 0-11.525-9.34-20.867-20.861-20.867s-20.861 9.342-20.861 20.867c0 11.524 9.34 20.867 20.861 20.867z" fill="#75e3f2"/><path d="m667.181 331.135c11.52 0 20.859-9.342 20.859-20.865 0-11.524-9.339-20.865-20.859-20.865s-20.859 9.341-20.859 20.865c0 11.523 9.339 20.865 20.859 20.865z" fill="#75e3f2"/><path d="m535.348 283.735c1.615 11.407-6.315 21.975-17.722 23.59-11.407 1.624-21.967-6.318-23.586-17.725-1.619-11.41 6.318-21.975 17.722-23.593 11.41-1.621 21.967 6.318 23.586 17.728z" fill="#75e3f2"/><path d="m551.852 335.016c10.223 0 18.511-8.29 18.511-18.517 0-10.226-8.288-18.517-18.511-18.517-10.224 0-18.512 8.291-18.512 18.517 0 10.227 8.288 18.517 18.512 18.517z" fill="#75e3f2"/><path d="m621.426 345.502c10.224 0 18.512-8.29 18.512-18.517s-8.288-18.517-18.512-18.517c-10.223 0-18.511 8.29-18.511 18.517s8.288 18.517 18.511 18.517z" fill="#75e3f2"/><path d="m484.502 344.866c10.224 0 18.512-8.29 18.512-18.516 0-10.227-8.288-18.517-18.512-18.517-10.223 0-18.511 8.29-18.511 18.517 0 10.226 8.288 18.516 18.511 18.516z" fill="#75e3f2"/><path d="m582.46 362.988c8.908 0 16.128-7.223 16.128-16.133s-7.22-16.133-16.128-16.133c-8.907 0-16.128 7.223-16.128 16.133s7.221 16.133 16.128 16.133z" fill="#75e3f2"/><path d="m464.436 380.365c8.907 0 16.127-7.223 16.127-16.132s-7.22-16.131-16.127-16.131c-8.906 0-16.126 7.222-16.126 16.131s7.22 16.132 16.126 16.132z" fill="#75e3f2"/><path d="m523.157 362.772c8.908 0 16.129-7.223 16.129-16.133s-7.221-16.133-16.129-16.133c-8.907 0-16.128 7.223-16.128 16.133s7.221 16.133 16.128 16.133z" fill="#75e3f2"/><path d="m551.887 387.05c7.761 0 14.053-6.293 14.053-14.057 0-7.763-6.292-14.057-14.053-14.057s-14.053 6.294-14.053 14.057c0 7.764 6.292 14.057 14.053 14.057z" fill="#75e3f2"/><path d="m452.441 417.279c7.76 0 14.051-6.293 14.051-14.056 0-7.762-6.291-14.055-14.051-14.055s-14.052 6.293-14.052 14.055c0 7.763 6.292 14.056 14.052 14.056z" fill="#75e3f2"/><path d="m500.763 394.525c7.76 0 14.051-6.293 14.051-14.056 0-7.762-6.291-14.055-14.051-14.055-7.761 0-14.052 6.293-14.052 14.055 0 7.763 6.291 14.056 14.052 14.056z" fill="#75e3f2"/><path d="m446.884 447.396c6.761 0 12.242-5.483 12.242-12.246s-5.481-12.245-12.242-12.245-12.242 5.482-12.242 12.245 5.481 12.246 12.242 12.246z" fill="#75e3f2"/><path d="m485.531 421.473c6.761 0 12.242-5.483 12.242-12.246s-5.481-12.246-12.242-12.246-12.242 5.483-12.242 12.246 5.481 12.246 12.242 12.246z" fill="#75e3f2"/><path d="m530.105 408.117c6.762 0 12.243-5.482 12.243-12.245 0-6.764-5.481-12.246-12.243-12.246-6.761 0-12.242 5.482-12.242 12.246 0 6.763 5.481 12.245 12.242 12.245z" fill="#75e3f2"/><path d="m444.523 475.455c6 0 10.864-4.865 10.864-10.866 0-6.002-4.864-10.867-10.864-10.867-5.999 0-10.863 4.865-10.863 10.867 0 6.001 4.864 10.866 10.863 10.866z" fill="#75e3f2"/><path d="m475.027 447.615c6 0 10.864-4.865 10.864-10.866 0-6.002-4.864-10.867-10.864-10.867s-10.863 4.865-10.863 10.867c0 6.001 4.863 10.866 10.863 10.866z" fill="#75e3f2"/><path d="m512.387 430.026c6 0 10.864-4.865 10.864-10.866 0-6.002-4.864-10.867-10.864-10.867-5.999 0-10.863 4.865-10.863 10.867 0 6.001 4.864 10.866 10.863 10.866z" fill="#75e3f2"/><path d="m448.1 498.874c5.227 0 9.464-4.238 9.464-9.467 0-5.228-4.237-9.466-9.464-9.466s-9.464 4.238-9.464 9.466c0 5.229 4.237 9.467 9.464 9.467z" fill="#75e3f2"/><path d="m470.731 470.9c5.227 0 9.464-4.238 9.464-9.466 0-5.229-4.237-9.467-9.464-9.467-5.226 0-9.463 4.238-9.463 9.467 0 5.228 4.237 9.466 9.463 9.466z" fill="#75e3f2"/><path d="m500.613 450.859c5.226 0 9.463-4.238 9.463-9.466 0-5.229-4.237-9.467-9.463-9.467-5.227 0-9.464 4.238-9.464 9.467 0 5.228 4.237 9.466 9.464 9.466z" fill="#75e3f2"/><path d="m453.352 520.317c4.609 0 8.346-3.738 8.346-8.349s-3.737-8.349-8.346-8.349c-4.61 0-8.346 3.738-8.346 8.349s3.736 8.349 8.346 8.349z" fill="#75e3f2"/><path d="m469.432 492.962c4.609 0 8.346-3.738 8.346-8.348 0-4.611-3.737-8.349-8.346-8.349-4.61 0-8.347 3.738-8.347 8.349 0 4.61 3.737 8.348 8.347 8.348z" fill="#75e3f2"/><path d="m492.866 471.573c4.609 0 8.345-3.737 8.345-8.347s-3.736-8.347-8.345-8.347c-4.608 0-8.344 3.737-8.344 8.347s3.736 8.347 8.344 8.347z" fill="#75e3f2"/><path d="m461.909 536.622c4.017 0 7.273-3.257 7.273-7.274 0-4.018-3.256-7.275-7.273-7.275-4.016 0-7.272 3.257-7.272 7.275 0 4.017 3.256 7.274 7.272 7.274z" fill="#75e3f2"/><path d="m472.179 510.953c4.016 0 7.271-3.256 7.271-7.273 0-4.016-3.255-7.272-7.271-7.272-4.015 0-7.27 3.256-7.27 7.272 0 4.017 3.255 7.273 7.27 7.273z" fill="#75e3f2"/><path d="m489.565 489.464c4.016 0 7.271-3.256 7.271-7.273s-3.255-7.273-7.271-7.273c-4.015 0-7.27 3.256-7.27 7.273s3.255 7.273 7.27 7.273z" fill="#75e3f2"/><path d="m470.099 551.155c3.564 0 6.454-2.89 6.454-6.455s-2.89-6.455-6.454-6.455-6.453 2.89-6.453 6.455 2.889 6.455 6.453 6.455z" fill="#75e3f2"/><path d="m475.735 527.276c3.563 0 6.452-2.889 6.452-6.453s-2.889-6.453-6.452-6.453-6.452 2.889-6.452 6.453 2.889 6.453 6.452 6.453z" fill="#75e3f2"/><path d="m488.166 506.129c3.563 0 6.451-2.889 6.451-6.454 0-3.564-2.888-6.453-6.451-6.453s-6.452 2.889-6.452 6.453c0 3.565 2.889 6.454 6.452 6.454z" fill="#75e3f2"/><path d="m480.619 561.188c3.106 0 5.623-2.519 5.623-5.625s-2.517-5.624-5.623-5.624c-3.105 0-5.622 2.518-5.622 5.624s2.517 5.625 5.622 5.625z" fill="#75e3f2"/><path d="m482.35 539.882c3.104 0 5.621-2.518 5.621-5.623s-2.517-5.623-5.621-5.623c-3.105 0-5.622 2.518-5.622 5.623s2.517 5.623 5.622 5.623z" fill="#75e3f2"/><path d="m490.291 520.039c3.105 0 5.621-2.517 5.621-5.623 0-3.105-2.516-5.622-5.621-5.622-3.104 0-5.621 2.517-5.621 5.622 0 3.106 2.517 5.623 5.621 5.623z" fill="#75e3f2"/><path d="m1063.69 556.713c22.26 0 40.31-18.053 40.31-40.322 0-22.27-18.05-40.323-40.31-40.323-22.27 0-40.31 18.053-40.31 40.323 0 22.269 18.04 40.322 40.31 40.322z" fill="#009cff"/><path d="m1042.8 708.488c-21.69-5.014-35.21-26.67-30.19-48.366 5.01-21.703 26.67-35.221 48.36-30.206s35.21 26.67 30.19 48.366c-5.01 21.704-26.67 35.224-48.36 30.206z" fill="#009cff"/><path d="m975.24 846.572c-19.242-11.198-25.776-35.881-14.577-55.131 11.192-19.255 35.877-25.775 55.117-14.579 19.25 11.199 25.77 35.882 14.58 55.128-11.2 19.259-35.876 25.78-55.12 14.582z" fill="#009cff"/><path d="m988.142 484.772c19.398 0 35.118-15.729 35.118-35.132s-15.72-35.132-35.118-35.132-35.122 15.729-35.122 35.132 15.724 35.132 35.122 35.132z" fill="#009cff"/><path d="m997.968 617.94c19.402 0 35.122-15.729 35.122-35.132s-15.72-35.132-35.122-35.132c-19.397 0-35.122 15.729-35.122 35.132s15.725 35.132 35.122 35.132z" fill="#009cff"/><path d="m955.155 745.622c-18.041-7.129-26.895-27.533-19.77-45.579 7.124-18.051 27.529-26.901 45.571-19.775 18.041 7.126 26.894 27.53 19.774 45.579-7.13 18.047-27.535 26.898-45.575 19.775z" fill="#009cff"/><path d="m932.781 437.715c-16.036 6.257-34.111-1.663-40.369-17.705-6.258-16.043 1.669-34.12 17.704-40.381 16.033-6.26 34.107 1.665 40.366 17.705 6.261 16.041-1.669 34.121-17.701 40.381z" fill="#009cff"/><path d="m947.595 555.418c17.213 0 31.167-13.958 31.167-31.175 0-17.218-13.954-31.176-31.167-31.176-17.212 0-31.166 13.958-31.166 31.176 0 17.217 13.954 31.175 31.166 31.175z" fill="#009cff"/><path d="m931.449 672.758c-16.766-3.874-27.224-20.619-23.344-37.392 3.873-16.781 20.616-27.232 37.388-23.356 16.766 3.878 27.22 20.622 23.344 37.399-3.878 16.778-20.618 27.23-37.388 23.349z" fill="#009cff"/><path d="m851.548 403.673c14.997 0 27.155-12.161 27.155-27.162s-12.158-27.162-27.155-27.162-27.154 12.161-27.154 27.162 12.157 27.162 27.154 27.162z" fill="#009cff"/><path d="m895.202 499.124c-14.624 3.318-29.174-5.844-32.492-20.477-3.32-14.623 5.845-29.178 20.472-32.498 14.622-3.321 29.172 5.841 32.489 20.474 3.318 14.626-5.844 29.181-20.469 32.501z" fill="#009cff"/><path d="m896.787 602.752c14.996 0 27.153-12.16 27.153-27.161 0-15-12.157-27.16-27.153-27.16s-27.153 12.16-27.153 27.16c0 15.001 12.157 27.161 27.153 27.161z" fill="#009cff"/><path d="m790.434 386.707c13.223 0 23.943-10.723 23.943-23.95 0-13.226-10.72-23.949-23.943-23.949s-23.942 10.723-23.942 23.949c0 13.227 10.719 23.95 23.942 23.95z" fill="#009cff"/><path d="m835.83 465.606c13.223 0 23.944-10.723 23.944-23.95 0-13.228-10.721-23.951-23.944-23.951-13.224 0-23.945 10.723-23.945 23.951 0 13.227 10.721 23.95 23.945 23.95z" fill="#009cff"/><path d="m855.918 554.392c13.223 0 23.942-10.722 23.942-23.949s-10.719-23.95-23.942-23.95-23.942 10.723-23.942 23.95 10.719 23.949 23.942 23.949z" fill="#009cff"/><path d="m747.996 369.125c-7.838 8.447-21.041 8.941-29.484 1.1-8.443-7.84-8.932-21.044-1.093-29.491 7.835-8.446 21.035-8.939 29.478-1.097 8.443 7.839 8.935 21.044 1.099 29.488z" fill="#009cff"/><path d="m782.13 437.817c11.521 0 20.861-9.343 20.861-20.867 0-11.525-9.34-20.867-20.861-20.867s-20.861 9.342-20.861 20.867c0 11.524 9.34 20.867 20.861 20.867z" fill="#009cff"/><path d="m811.049 511.663c11.521 0 20.86-9.342 20.86-20.867 0-11.524-9.339-20.867-20.86-20.867-11.522 0-20.861 9.343-20.861 20.867 0 11.525 9.339 20.867 20.861 20.867z" fill="#009cff"/><path d="m684.804 376.063c10.223 0 18.51-8.29 18.51-18.516 0-10.225-8.287-18.515-18.51-18.515s-18.51 8.29-18.51 18.515c0 10.226 8.287 18.516 18.51 18.516z" fill="#009cff"/><path d="m736.34 423.981c10.223 0 18.511-8.291 18.511-18.517 0-10.227-8.288-18.517-18.511-18.517-10.224 0-18.512 8.29-18.512 18.517 0 10.226 8.288 18.517 18.512 18.517z" fill="#009cff"/><path d="m771.436 484.98c10.223 0 18.511-8.29 18.511-18.517s-8.288-18.517-18.511-18.517c-10.224 0-18.512 8.29-18.512 18.517s8.288 18.517 18.512 18.517z" fill="#009cff"/><path d="m641.05 381.019c8.907 0 16.127-7.222 16.127-16.131s-7.22-16.131-16.127-16.131c-8.906 0-16.126 7.222-16.126 16.131s7.22 16.131 16.126 16.131z" fill="#009cff"/><path d="m691.709 415.546c8.907 0 16.128-7.222 16.128-16.132s-7.221-16.133-16.128-16.133c-8.908 0-16.128 7.223-16.128 16.133s7.22 16.132 16.128 16.132z" fill="#009cff"/><path d="m729.92 463.497c8.909 0 16.13-7.224 16.13-16.135s-7.221-16.134-16.13-16.134c-8.908 0-16.13 7.223-16.13 16.134s7.222 16.135 16.13 16.135z" fill="#009cff"/><path d="m604.7 395.007c7.76 0 14.051-6.293 14.051-14.055 0-7.763-6.291-14.056-14.051-14.056-7.761 0-14.052 6.293-14.052 14.056 0 7.762 6.291 14.055 14.052 14.055z" fill="#009cff"/><path d="m652.81 418.208c7.761 0 14.052-6.293 14.052-14.056 0-7.762-6.291-14.055-14.052-14.055-7.76 0-14.051 6.293-14.051 14.055 0 7.763 6.291 14.056 14.051 14.056z" fill="#009cff"/><path d="m691.93 454.58c7.76 0 14.051-6.293 14.051-14.055 0-7.763-6.291-14.056-14.051-14.056-7.761 0-14.052 6.293-14.052 14.056 0 7.762 6.291 14.055 14.052 14.055z" fill="#009cff"/><path d="m575.122 408.282c6.761 0 12.242-5.483 12.242-12.246s-5.481-12.246-12.242-12.246-12.242 5.483-12.242 12.246 5.481 12.246 12.242 12.246z" fill="#009cff"/><path d="m619.596 421.969c6.761 0 12.242-5.482 12.242-12.245s-5.481-12.246-12.242-12.246-12.242 5.483-12.242 12.246 5.481 12.245 12.242 12.245z" fill="#009cff"/><path d="m658.051 448.18c6.762 0 12.244-5.483 12.244-12.247s-5.482-12.248-12.244-12.248-12.244 5.484-12.244 12.248 5.482 12.247 12.244 12.247z" fill="#009cff"/><path d="m551.913 424.245c6 0 10.863-4.865 10.863-10.866 0-6.002-4.863-10.867-10.863-10.867s-10.864 4.865-10.864 10.867c0 6.001 4.864 10.866 10.864 10.866z" fill="#009cff"/><path d="m592.743 430.4c6 0 10.864-4.865 10.864-10.866 0-6.002-4.864-10.867-10.864-10.867s-10.863 4.865-10.863 10.867c0 6.001 4.863 10.866 10.863 10.866z" fill="#009cff"/><path d="m629.939 448.336c5.999 0 10.863-4.865 10.863-10.866 0-6.002-4.864-10.867-10.863-10.867-6 0-10.864 4.865-10.864 10.867 0 6.001 4.864 10.866 10.864 10.866z" fill="#009cff"/><path d="m569.876 440.662c5.228 0 9.466-4.239 9.466-9.468s-4.238-9.468-9.466-9.468c-5.227 0-9.465 4.239-9.465 9.468s4.238 9.468 9.465 9.468z" fill="#009cff"/><path d="m604.26 451.243c5.226 0 9.463-4.238 9.463-9.467 0-5.228-4.237-9.466-9.463-9.466-5.227 0-9.464 4.238-9.464 9.466 0 5.229 4.237 9.467 9.464 9.467z" fill="#009cff"/><path d="m535.072 440.535c5.227 0 9.465-4.239 9.465-9.469 0-5.229-4.238-9.468-9.465-9.468-5.228 0-9.465 4.239-9.465 9.468 0 5.23 4.237 9.469 9.465 9.469z" fill="#009cff"/><path d="m551.934 453.622c4.609 0 8.346-3.738 8.346-8.349 0-4.61-3.737-8.348-8.346-8.348-4.61 0-8.346 3.738-8.346 8.348 0 4.611 3.736 8.349 8.346 8.349z" fill="#009cff"/><path d="m583.302 458.348c4.609 0 8.346-3.738 8.346-8.349 0-4.61-3.737-8.348-8.346-8.348-4.61 0-8.346 3.738-8.346 8.348 0 4.611 3.736 8.349 8.346 8.349z" fill="#009cff"/><path d="m521.567 458.061c4.609 0 8.345-3.737 8.345-8.347s-3.736-8.347-8.345-8.347c-4.608 0-8.344 3.737-8.344 8.347s3.736 8.347 8.344 8.347z" fill="#009cff"/><path d="m565.734 466.232c4.015 0 7.271-3.256 7.271-7.273 0-4.016-3.256-7.272-7.271-7.272-4.016 0-7.271 3.256-7.271 7.272 0 4.017 3.255 7.273 7.271 7.273z" fill="#009cff"/><path d="m512.521 474.066c4.016 0 7.271-3.256 7.271-7.272 0-4.017-3.255-7.273-7.271-7.273-4.015 0-7.271 3.256-7.271 7.273 0 4.016 3.256 7.272 7.271 7.272z" fill="#009cff"/><path d="m538.995 466.135c4.017 0 7.273-3.256 7.273-7.274s-3.256-7.274-7.273-7.274c-4.016 0-7.272 3.256-7.272 7.274s3.256 7.274 7.272 7.274z" fill="#009cff"/><path d="m551.95 475.713c3.563 0 6.452-2.889 6.452-6.453s-2.889-6.454-6.452-6.454-6.452 2.89-6.452 6.454 2.889 6.453 6.452 6.453z" fill="#009cff"/><path d="m506.284 489.593c3.563 0 6.452-2.889 6.452-6.454 0-3.564-2.889-6.453-6.452-6.453s-6.452 2.889-6.452 6.453c0 3.565 2.889 6.454 6.452 6.454z" fill="#009cff"/><path d="m528.474 479.146c3.563 0 6.451-2.89 6.451-6.454s-2.888-6.453-6.451-6.453c-3.564 0-6.452 2.889-6.452 6.453s2.888 6.454 6.452 6.454z" fill="#009cff"/><path d="m503.733 503.424c3.104 0 5.621-2.517 5.621-5.623 0-3.105-2.517-5.623-5.621-5.623-3.105 0-5.621 2.518-5.621 5.623 0 3.106 2.516 5.623 5.621 5.623z" fill="#009cff"/><path d="m521.479 491.52c3.104 0 5.621-2.517 5.621-5.622 0-3.106-2.517-5.623-5.621-5.623-3.105 0-5.622 2.517-5.622 5.623 0 3.105 2.517 5.622 5.622 5.622z" fill="#009cff"/><path d="m541.948 485.389c3.105 0 5.622-2.518 5.622-5.624s-2.517-5.624-5.622-5.624c-3.106 0-5.623 2.518-5.623 5.624s2.517 5.624 5.623 5.624z" fill="#009cff"/></g></svg>